<mxfile host="app.diagrams.net" modified="2021-01-20T06:52:52.956Z" agent="5.0 (Windows NT 10.0; Win64; x64) AppleWebKit/537.36 (KHTML, like Gecko) Chrome/87.0.4280.141 Safari/537.36" etag="Bbn0SLvwrJD7M428u6Cm" version="14.2.5" type="gitlab">
  <diagram id="65VvHo6--kCIn4KXoi39" name="Page-1">
    <mxGraphModel dx="2005" dy="1810" grid="1" gridSize="10" guides="1" tooltips="1" connect="1" arrows="1" fold="1" page="1" pageScale="1" pageWidth="827" pageHeight="1169" math="0" shadow="0">
      <root>
        <mxCell id="0" />
        <mxCell id="1" parent="0" />
        <mxCell id="d0yQMke6JM1EVP33kVht-1" value="" style="shape=table;html=1;whiteSpace=wrap;startSize=0;container=1;collapsible=0;childLayout=tableLayout;align=left;verticalAlign=top;" parent="1" vertex="1">
          <mxGeometry x="-510" y="-560" width="270" height="349.9999999999998" as="geometry" />
        </mxCell>
        <mxCell id="d0yQMke6JM1EVP33kVht-2" value="" style="shape=partialRectangle;html=1;whiteSpace=wrap;collapsible=0;dropTarget=0;pointerEvents=0;fillColor=none;top=0;left=0;bottom=0;right=0;points=[[0,0.5],[1,0.5]];portConstraint=eastwest;" parent="d0yQMke6JM1EVP33kVht-1" vertex="1">
          <mxGeometry width="270" height="78" as="geometry" />
        </mxCell>
        <mxCell id="d0yQMke6JM1EVP33kVht-3" value="&lt;h2 style=&quot;font-family: &amp;#34;times new roman&amp;#34; ; background-color: rgb(170 , 170 , 170)&quot;&gt;&lt;div style=&quot;color: rgb(212 , 212 , 212) ; background-color: rgb(30 , 30 , 30) ; font-family: &amp;#34;consolas&amp;#34; , &amp;#34;courier new&amp;#34; , monospace ; font-weight: normal ; font-size: 14px ; line-height: 19px&quot;&gt;&lt;/div&gt;&lt;/h2&gt;&lt;h2 style=&quot;font-family: &amp;#34;times new roman&amp;#34;&quot;&gt;&lt;span style=&quot;background-color: rgb(255 , 255 , 255)&quot;&gt;User&lt;/span&gt;&lt;/h2&gt;" style="shape=partialRectangle;html=1;whiteSpace=wrap;connectable=0;overflow=hidden;fillColor=none;top=0;left=0;bottom=0;right=0;" parent="d0yQMke6JM1EVP33kVht-2" vertex="1">
          <mxGeometry width="270" height="78" as="geometry" />
        </mxCell>
        <mxCell id="d0yQMke6JM1EVP33kVht-96" style="shape=partialRectangle;html=1;whiteSpace=wrap;collapsible=0;dropTarget=0;pointerEvents=0;fillColor=none;top=0;left=0;bottom=0;right=0;points=[[0,0.5],[1,0.5]];portConstraint=eastwest;" parent="d0yQMke6JM1EVP33kVht-1" vertex="1">
          <mxGeometry y="78" width="270" height="272" as="geometry" />
        </mxCell>
        <mxCell id="d0yQMke6JM1EVP33kVht-97" value="&lt;ul style=&quot;font-family: &amp;#34;times new roman&amp;#34; ; font-size: medium&quot;&gt;&lt;li&gt;id : SERIAL primary key&lt;/li&gt;&lt;li&gt;name : VARCHAR(255)&lt;/li&gt;&lt;li&gt;email : VARCHAR(255)&lt;/li&gt;&lt;li&gt;password : VARCHAR(255)&lt;/li&gt;&lt;li&gt;gender : VARCHAR(255)&lt;/li&gt;&lt;li&gt;level : INTEGER&lt;/li&gt;&lt;li&gt;experience : INTEGER&lt;/li&gt;&lt;li&gt;history : &lt;u&gt;&lt;b&gt;History ID Key&lt;/b&gt;&lt;/u&gt;&lt;/li&gt;&lt;li&gt;introduction : TEXT&lt;/li&gt;&lt;li&gt;rating : INTEGER&lt;/li&gt;&lt;li&gt;user_mage: VARCHAR(255)&lt;/li&gt;&lt;li&gt;image: VARCHAR(255)&lt;/li&gt;&lt;/ul&gt;" style="shape=partialRectangle;html=1;whiteSpace=wrap;connectable=0;overflow=hidden;fillColor=none;top=0;left=0;bottom=0;right=0;align=left;" parent="d0yQMke6JM1EVP33kVht-96" vertex="1">
          <mxGeometry width="270" height="272" as="geometry" />
        </mxCell>
        <mxCell id="d0yQMke6JM1EVP33kVht-4" value="" style="shape=table;html=1;whiteSpace=wrap;startSize=0;container=1;collapsible=0;childLayout=tableLayout;" parent="1" vertex="1">
          <mxGeometry y="-620" width="230" height="260" as="geometry" />
        </mxCell>
        <mxCell id="d0yQMke6JM1EVP33kVht-5" value="" style="shape=partialRectangle;html=1;whiteSpace=wrap;collapsible=0;dropTarget=0;pointerEvents=0;fillColor=none;top=0;left=0;bottom=0;right=0;points=[[0,0.5],[1,0.5]];portConstraint=eastwest;" parent="d0yQMke6JM1EVP33kVht-4" vertex="1">
          <mxGeometry width="230" height="78" as="geometry" />
        </mxCell>
        <mxCell id="d0yQMke6JM1EVP33kVht-6" value="&lt;h2 style=&quot;font-family: &amp;#34;times new roman&amp;#34;&quot;&gt;&lt;span style=&quot;background-color: rgb(255 , 255 , 255)&quot;&gt;User_joining_event&lt;/span&gt;&lt;/h2&gt;" style="shape=partialRectangle;html=1;whiteSpace=wrap;connectable=0;overflow=hidden;fillColor=none;top=0;left=0;bottom=0;right=0;" parent="d0yQMke6JM1EVP33kVht-5" vertex="1">
          <mxGeometry width="230" height="78" as="geometry" />
        </mxCell>
        <mxCell id="d0yQMke6JM1EVP33kVht-98" style="shape=partialRectangle;html=1;whiteSpace=wrap;collapsible=0;dropTarget=0;pointerEvents=0;fillColor=none;top=0;left=0;bottom=0;right=0;points=[[0,0.5],[1,0.5]];portConstraint=eastwest;" parent="d0yQMke6JM1EVP33kVht-4" vertex="1">
          <mxGeometry y="78" width="230" height="182" as="geometry" />
        </mxCell>
        <mxCell id="d0yQMke6JM1EVP33kVht-99" value="&lt;ul style=&quot;font-family: &amp;#34;times new roman&amp;#34; ; font-size: medium&quot;&gt;&lt;li&gt;id : SERIAL primary key&lt;/li&gt;&lt;li&gt;user : &lt;b&gt;&lt;u&gt;User ID&lt;/u&gt;&lt;/b&gt;&lt;/li&gt;&lt;li&gt;event : &lt;b&gt;&lt;u&gt;event ID&lt;/u&gt;&lt;/b&gt;&lt;/li&gt;&lt;/ul&gt;" style="shape=partialRectangle;html=1;whiteSpace=wrap;connectable=0;overflow=hidden;fillColor=none;top=0;left=0;bottom=0;right=0;fontStyle=0;align=left;" parent="d0yQMke6JM1EVP33kVht-98" vertex="1">
          <mxGeometry width="230" height="182" as="geometry" />
        </mxCell>
        <mxCell id="d0yQMke6JM1EVP33kVht-7" value="" style="shape=table;html=1;whiteSpace=wrap;startSize=0;container=1;collapsible=0;childLayout=tableLayout;align=left;" parent="1" vertex="1">
          <mxGeometry x="10" y="-320" width="210" height="180" as="geometry" />
        </mxCell>
        <mxCell id="d0yQMke6JM1EVP33kVht-8" value="" style="shape=partialRectangle;html=1;whiteSpace=wrap;collapsible=0;dropTarget=0;pointerEvents=0;fillColor=none;top=0;left=0;bottom=0;right=0;points=[[0,0.5],[1,0.5]];portConstraint=eastwest;" parent="d0yQMke6JM1EVP33kVht-7" vertex="1">
          <mxGeometry width="210" height="80" as="geometry" />
        </mxCell>
        <mxCell id="d0yQMke6JM1EVP33kVht-9" value="&lt;h2 style=&quot;font-family: &amp;#34;times new roman&amp;#34;&quot;&gt;&lt;span style=&quot;background-color: rgb(255 , 255 , 255)&quot;&gt;History&lt;/span&gt;&lt;/h2&gt;" style="shape=partialRectangle;html=1;whiteSpace=wrap;connectable=0;overflow=hidden;fillColor=none;top=0;left=0;bottom=0;right=0;" parent="d0yQMke6JM1EVP33kVht-8" vertex="1">
          <mxGeometry width="210" height="80" as="geometry" />
        </mxCell>
        <mxCell id="d0yQMke6JM1EVP33kVht-104" style="shape=partialRectangle;html=1;whiteSpace=wrap;collapsible=0;dropTarget=0;pointerEvents=0;fillColor=none;top=0;left=0;bottom=0;right=0;points=[[0,0.5],[1,0.5]];portConstraint=eastwest;fontStyle=0;align=left;" parent="d0yQMke6JM1EVP33kVht-7" vertex="1">
          <mxGeometry y="80" width="210" height="100" as="geometry" />
        </mxCell>
        <mxCell id="d0yQMke6JM1EVP33kVht-105" value="&lt;ul style=&quot;font-family: &amp;#34;times new roman&amp;#34; ; font-size: medium&quot;&gt;&lt;li&gt;id : SERIAL primary key&lt;/li&gt;&lt;li&gt;user : &lt;u&gt;&lt;b&gt;User ID&lt;/b&gt;&lt;/u&gt;&lt;/li&gt;&lt;li&gt;event : &lt;b&gt;&lt;u&gt;event ID&lt;/u&gt;&lt;/b&gt;&lt;/li&gt;&lt;/ul&gt;" style="shape=partialRectangle;html=1;whiteSpace=wrap;connectable=0;overflow=hidden;fillColor=none;top=0;left=0;bottom=0;right=0;align=left;" parent="d0yQMke6JM1EVP33kVht-104" vertex="1">
          <mxGeometry width="210" height="100" as="geometry" />
        </mxCell>
        <mxCell id="d0yQMke6JM1EVP33kVht-30" value="" style="shape=table;html=1;whiteSpace=wrap;startSize=0;container=1;collapsible=0;childLayout=tableLayout;" parent="1" vertex="1">
          <mxGeometry x="459" y="-40" width="220" height="210" as="geometry" />
        </mxCell>
        <mxCell id="d0yQMke6JM1EVP33kVht-31" value="" style="shape=partialRectangle;html=1;whiteSpace=wrap;collapsible=0;dropTarget=0;pointerEvents=0;fillColor=none;top=0;left=0;bottom=0;right=0;points=[[0,0.5],[1,0.5]];portConstraint=eastwest;" parent="d0yQMke6JM1EVP33kVht-30" vertex="1">
          <mxGeometry width="220" height="80" as="geometry" />
        </mxCell>
        <mxCell id="d0yQMke6JM1EVP33kVht-32" value="&lt;h2 style=&quot;font-family: &amp;#34;times new roman&amp;#34;&quot;&gt;&lt;span style=&quot;background-color: rgb(255 , 255 , 255)&quot;&gt;hiking_trail&lt;/span&gt;&lt;/h2&gt;" style="shape=partialRectangle;html=1;whiteSpace=wrap;connectable=0;overflow=hidden;fillColor=none;top=0;left=0;bottom=0;right=0;" parent="d0yQMke6JM1EVP33kVht-31" vertex="1">
          <mxGeometry width="220" height="80" as="geometry" />
        </mxCell>
        <mxCell id="d0yQMke6JM1EVP33kVht-110" style="shape=partialRectangle;html=1;whiteSpace=wrap;collapsible=0;dropTarget=0;pointerEvents=0;fillColor=none;top=0;left=0;bottom=0;right=0;points=[[0,0.5],[1,0.5]];portConstraint=eastwest;" parent="d0yQMke6JM1EVP33kVht-30" vertex="1">
          <mxGeometry y="80" width="220" height="130" as="geometry" />
        </mxCell>
        <mxCell id="d0yQMke6JM1EVP33kVht-111" value="&lt;ul style=&quot;font-family: &amp;#34;times new roman&amp;#34; ; font-size: medium&quot;&gt;&lt;li&gt;id : SERIAL primary key&lt;/li&gt;&lt;li&gt;name : VARCHAR(255)&lt;/li&gt;&lt;li&gt;image: VARCHAR(255)&lt;/li&gt;&lt;li&gt;introduction : TEXT&lt;/li&gt;&lt;li&gt;hardness : INTEGER&lt;/li&gt;&lt;/ul&gt;" style="shape=partialRectangle;html=1;whiteSpace=wrap;connectable=0;overflow=hidden;fillColor=none;top=0;left=0;bottom=0;right=0;align=left;" parent="d0yQMke6JM1EVP33kVht-110" vertex="1">
          <mxGeometry width="220" height="130" as="geometry" />
        </mxCell>
        <mxCell id="d0yQMke6JM1EVP33kVht-33" value="" style="shape=table;html=1;whiteSpace=wrap;startSize=0;container=1;collapsible=0;childLayout=tableLayout;" parent="1" vertex="1">
          <mxGeometry x="10" y="-870" width="230" height="208" as="geometry" />
        </mxCell>
        <mxCell id="d0yQMke6JM1EVP33kVht-34" value="" style="shape=partialRectangle;html=1;whiteSpace=wrap;collapsible=0;dropTarget=0;pointerEvents=0;fillColor=none;top=0;left=0;bottom=0;right=0;points=[[0,0.5],[1,0.5]];portConstraint=eastwest;" parent="d0yQMke6JM1EVP33kVht-33" vertex="1">
          <mxGeometry width="230" height="80" as="geometry" />
        </mxCell>
        <mxCell id="d0yQMke6JM1EVP33kVht-35" value="&lt;h2 style=&quot;font-family: &amp;#34;times new roman&amp;#34;&quot;&gt;&lt;span style=&quot;background-color: rgb(255 , 255 , 255)&quot;&gt;Chatroom&lt;/span&gt;&lt;/h2&gt;" style="shape=partialRectangle;html=1;whiteSpace=wrap;connectable=0;overflow=hidden;fillColor=none;top=0;left=0;bottom=0;right=0;" parent="d0yQMke6JM1EVP33kVht-34" vertex="1">
          <mxGeometry width="230" height="80" as="geometry" />
        </mxCell>
        <mxCell id="d0yQMke6JM1EVP33kVht-106" style="shape=partialRectangle;html=1;whiteSpace=wrap;collapsible=0;dropTarget=0;pointerEvents=0;fillColor=none;top=0;left=0;bottom=0;right=0;points=[[0,0.5],[1,0.5]];portConstraint=eastwest;" parent="d0yQMke6JM1EVP33kVht-33" vertex="1">
          <mxGeometry y="80" width="230" height="128" as="geometry" />
        </mxCell>
        <mxCell id="d0yQMke6JM1EVP33kVht-107" value="&lt;ul style=&quot;font-family: &amp;#34;times new roman&amp;#34; ; font-size: medium&quot;&gt;&lt;li&gt;id : SERIAL primary key&lt;/li&gt;&lt;li&gt;user : &lt;b&gt;&lt;u&gt;User ID&lt;/u&gt;&lt;/b&gt;&lt;/li&gt;&lt;li&gt;event : &lt;b&gt;&lt;u&gt;event ID&lt;/u&gt;&lt;/b&gt;&lt;/li&gt;&lt;li&gt;content : TEXT&lt;/li&gt;&lt;/ul&gt;" style="shape=partialRectangle;html=1;whiteSpace=wrap;connectable=0;overflow=hidden;fillColor=none;top=0;left=0;bottom=0;right=0;align=left;" parent="d0yQMke6JM1EVP33kVht-106" vertex="1">
          <mxGeometry width="230" height="128" as="geometry" />
        </mxCell>
        <mxCell id="d0yQMke6JM1EVP33kVht-36" value="" style="shape=table;html=1;whiteSpace=wrap;startSize=0;container=1;collapsible=0;childLayout=tableLayout;" parent="1" vertex="1">
          <mxGeometry x="414" y="-584" width="310" height="333.9999999999993" as="geometry" />
        </mxCell>
        <mxCell id="d0yQMke6JM1EVP33kVht-37" value="" style="shape=partialRectangle;html=1;whiteSpace=wrap;collapsible=0;dropTarget=0;pointerEvents=0;fillColor=none;top=0;left=0;bottom=0;right=0;points=[[0,0.5],[1,0.5]];portConstraint=eastwest;" parent="d0yQMke6JM1EVP33kVht-36" vertex="1">
          <mxGeometry width="310" height="83" as="geometry" />
        </mxCell>
        <mxCell id="d0yQMke6JM1EVP33kVht-38" value="&lt;h2 style=&quot;font-family: &amp;#34;times new roman&amp;#34;&quot;&gt;&lt;span style=&quot;background-color: rgb(255 , 255 , 255)&quot;&gt;Event&lt;/span&gt;&lt;/h2&gt;" style="shape=partialRectangle;html=1;whiteSpace=wrap;connectable=0;overflow=hidden;fillColor=none;top=0;left=0;bottom=0;right=0;" parent="d0yQMke6JM1EVP33kVht-37" vertex="1">
          <mxGeometry width="310" height="83" as="geometry" />
        </mxCell>
        <mxCell id="d0yQMke6JM1EVP33kVht-102" style="shape=partialRectangle;html=1;whiteSpace=wrap;collapsible=0;dropTarget=0;pointerEvents=0;fillColor=none;top=0;left=0;bottom=0;right=0;points=[[0,0.5],[1,0.5]];portConstraint=eastwest;" parent="d0yQMke6JM1EVP33kVht-36" vertex="1">
          <mxGeometry y="83" width="310" height="251" as="geometry" />
        </mxCell>
        <mxCell id="d0yQMke6JM1EVP33kVht-103" value="&lt;ul style=&quot;font-family: &amp;#34;times new roman&amp;#34; ; font-size: medium&quot;&gt;&lt;li&gt;id : SERIAL primary key&lt;/li&gt;&lt;li&gt;event_name : VARCHAR(255)&lt;/li&gt;&lt;li&gt;meeting_point : VARCHAR(255)&lt;/li&gt;&lt;li&gt;date : DATE&lt;/li&gt;&lt;li&gt;time : TIME&lt;/li&gt;&lt;li&gt;max_number_of_member: INTEGER&lt;/li&gt;&lt;li&gt;joining_number_of_member: INTEGER&lt;/li&gt;&lt;li&gt;hiking_trail :&amp;nbsp;&lt;b&gt;&lt;u&gt;Hiking_trail ID&lt;/u&gt;&lt;/b&gt;&lt;/li&gt;&lt;li&gt;detail: TEXT&lt;/li&gt;&lt;li&gt;is_active : BOOLEAN&lt;/li&gt;&lt;/ul&gt;" style="shape=partialRectangle;html=1;whiteSpace=wrap;connectable=0;overflow=hidden;fillColor=none;top=0;left=0;bottom=0;right=0;align=left;" parent="d0yQMke6JM1EVP33kVht-102" vertex="1">
          <mxGeometry width="310" height="251" as="geometry" />
        </mxCell>
        <mxCell id="d0yQMke6JM1EVP33kVht-39" value="" style="shape=table;html=1;whiteSpace=wrap;startSize=0;container=1;collapsible=0;childLayout=tableLayout;" parent="1" vertex="1">
          <mxGeometry y="-75" width="230" height="245" as="geometry" />
        </mxCell>
        <mxCell id="d0yQMke6JM1EVP33kVht-40" value="" style="shape=partialRectangle;html=1;whiteSpace=wrap;collapsible=0;dropTarget=0;pointerEvents=0;fillColor=none;top=0;left=0;bottom=0;right=0;points=[[0,0.5],[1,0.5]];portConstraint=eastwest;" parent="d0yQMke6JM1EVP33kVht-39" vertex="1">
          <mxGeometry width="230" height="80" as="geometry" />
        </mxCell>
        <mxCell id="d0yQMke6JM1EVP33kVht-41" value="&lt;h2 style=&quot;font-family: &amp;#34;times new roman&amp;#34;&quot;&gt;&lt;span style=&quot;background-color: rgb(255 , 255 , 255)&quot;&gt;rating_event&lt;/span&gt;&lt;/h2&gt;" style="shape=partialRectangle;html=1;whiteSpace=wrap;connectable=0;overflow=hidden;fillColor=none;top=0;left=0;bottom=0;right=0;" parent="d0yQMke6JM1EVP33kVht-40" vertex="1">
          <mxGeometry width="230" height="80" as="geometry" />
        </mxCell>
        <mxCell id="d0yQMke6JM1EVP33kVht-108" style="shape=partialRectangle;html=1;whiteSpace=wrap;collapsible=0;dropTarget=0;pointerEvents=0;fillColor=none;top=0;left=0;bottom=0;right=0;points=[[0,0.5],[1,0.5]];portConstraint=eastwest;" parent="d0yQMke6JM1EVP33kVht-39" vertex="1">
          <mxGeometry y="80" width="230" height="165" as="geometry" />
        </mxCell>
        <mxCell id="d0yQMke6JM1EVP33kVht-109" value="&lt;ul style=&quot;font-family: &amp;#34;times new roman&amp;#34; ; font-size: medium&quot;&gt;&lt;li&gt;id : SERIAL primary key&lt;/li&gt;&lt;li&gt;user : &lt;b&gt;&lt;u&gt;User ID&lt;/u&gt;&lt;/b&gt;&lt;/li&gt;&lt;li&gt;event : &lt;b&gt;&lt;u&gt;event ID&lt;/u&gt;&lt;/b&gt;&lt;/li&gt;&lt;li&gt;rating_person : &lt;b&gt;&lt;u&gt;User ID&lt;/u&gt;&lt;/b&gt;&lt;/li&gt;&lt;li&gt;rating : INTEGER&lt;/li&gt;&lt;li&gt;comment :VARCHAR(255)&lt;/li&gt;&lt;/ul&gt;" style="shape=partialRectangle;html=1;whiteSpace=wrap;connectable=0;overflow=hidden;fillColor=none;top=0;left=0;bottom=0;right=0;align=left;" parent="d0yQMke6JM1EVP33kVht-108" vertex="1">
          <mxGeometry width="230" height="165" as="geometry" />
        </mxCell>
        <mxCell id="d0yQMke6JM1EVP33kVht-113" value="" style="edgeStyle=entityRelationEdgeStyle;fontSize=12;html=1;endArrow=ERmany;entryX=1.003;entryY=0.072;entryDx=0;entryDy=0;entryPerimeter=0;exitX=0;exitY=0.168;exitDx=0;exitDy=0;exitPerimeter=0;" parent="1" source="d0yQMke6JM1EVP33kVht-98" target="d0yQMke6JM1EVP33kVht-96" edge="1">
          <mxGeometry width="100" height="100" relative="1" as="geometry">
            <mxPoint x="-70" y="-540" as="sourcePoint" />
            <mxPoint x="-190" y="-470" as="targetPoint" />
          </mxGeometry>
        </mxCell>
        <mxCell id="d0yQMke6JM1EVP33kVht-112" value="" style="edgeStyle=entityRelationEdgeStyle;fontSize=12;html=1;endArrow=ERmany;exitX=1;exitY=0.5;exitDx=0;exitDy=0;entryX=0.003;entryY=0.125;entryDx=0;entryDy=0;entryPerimeter=0;" parent="1" source="d0yQMke6JM1EVP33kVht-98" target="d0yQMke6JM1EVP33kVht-102" edge="1">
          <mxGeometry width="100" height="100" relative="1" as="geometry">
            <mxPoint x="314" y="-290" as="sourcePoint" />
            <mxPoint x="340" y="-560" as="targetPoint" />
          </mxGeometry>
        </mxCell>
        <mxCell id="d0yQMke6JM1EVP33kVht-114" value="" style="edgeStyle=entityRelationEdgeStyle;fontSize=12;html=1;endArrow=ERmany;" parent="1" source="d0yQMke6JM1EVP33kVht-104" target="d0yQMke6JM1EVP33kVht-96" edge="1">
          <mxGeometry width="100" height="100" relative="1" as="geometry">
            <mxPoint x="-310" y="10" as="sourcePoint" />
            <mxPoint x="-140" y="-190" as="targetPoint" />
          </mxGeometry>
        </mxCell>
        <mxCell id="d0yQMke6JM1EVP33kVht-115" value="" style="edgeStyle=entityRelationEdgeStyle;fontSize=12;html=1;endArrow=ERmany;exitX=1.004;exitY=0.577;exitDx=0;exitDy=0;exitPerimeter=0;entryX=0.001;entryY=0.877;entryDx=0;entryDy=0;entryPerimeter=0;" parent="1" source="d0yQMke6JM1EVP33kVht-104" target="d0yQMke6JM1EVP33kVht-102" edge="1">
          <mxGeometry width="100" height="100" relative="1" as="geometry">
            <mxPoint x="200" y="-190" as="sourcePoint" />
            <mxPoint x="410" y="-360" as="targetPoint" />
          </mxGeometry>
        </mxCell>
        <mxCell id="d0yQMke6JM1EVP33kVht-120" value="" style="edgeStyle=entityRelationEdgeStyle;fontSize=12;html=1;endArrow=ERmany;entryX=0.006;entryY=0.341;entryDx=0;entryDy=0;entryPerimeter=0;exitX=1.004;exitY=0.138;exitDx=0;exitDy=0;exitPerimeter=0;" parent="1" source="d0yQMke6JM1EVP33kVht-106" target="d0yQMke6JM1EVP33kVht-37" edge="1">
          <mxGeometry width="100" height="100" relative="1" as="geometry">
            <mxPoint x="280" y="-600" as="sourcePoint" />
            <mxPoint x="380" y="-700" as="targetPoint" />
          </mxGeometry>
        </mxCell>
        <mxCell id="d0yQMke6JM1EVP33kVht-121" value="" style="edgeStyle=entityRelationEdgeStyle;fontSize=12;html=1;endArrow=ERmany;" parent="1" source="d0yQMke6JM1EVP33kVht-106" target="d0yQMke6JM1EVP33kVht-2" edge="1">
          <mxGeometry width="100" height="100" relative="1" as="geometry">
            <mxPoint x="-170" y="-600" as="sourcePoint" />
            <mxPoint x="-70" y="-700" as="targetPoint" />
          </mxGeometry>
        </mxCell>
        <mxCell id="d0yQMke6JM1EVP33kVht-122" value="" style="edgeStyle=entityRelationEdgeStyle;fontSize=12;html=1;endArrow=ERmany;entryX=0.189;entryY=1.004;entryDx=0;entryDy=0;entryPerimeter=0;" parent="1" source="d0yQMke6JM1EVP33kVht-108" target="d0yQMke6JM1EVP33kVht-102" edge="1">
          <mxGeometry width="100" height="100" relative="1" as="geometry">
            <mxPoint x="280" y="-20" as="sourcePoint" />
            <mxPoint x="380" y="-120" as="targetPoint" />
          </mxGeometry>
        </mxCell>
        <mxCell id="d0yQMke6JM1EVP33kVht-123" value="" style="edgeStyle=entityRelationEdgeStyle;fontSize=12;html=1;endArrow=ERmany;exitX=0.008;exitY=0.36;exitDx=0;exitDy=0;exitPerimeter=0;entryX=0.747;entryY=1.013;entryDx=0;entryDy=0;entryPerimeter=0;" parent="1" source="d0yQMke6JM1EVP33kVht-108" target="d0yQMke6JM1EVP33kVht-96" edge="1">
          <mxGeometry width="100" height="100" relative="1" as="geometry">
            <mxPoint x="110" y="-140" as="sourcePoint" />
            <mxPoint x="210" y="-240" as="targetPoint" />
          </mxGeometry>
        </mxCell>
      </root>
    </mxGraphModel>
  </diagram>
</mxfile>
